<svg xmlns="http://www.w3.org/2000/svg" viewBox="0 0 175.216 175.552">
  <defs>
    <linearGradient id="b" x1="85.915" x2="86.535" y1="32.567" y2="137.092" gradientUnits="userSpaceOnUse">
      <stop offset="0" stop-color="#57d163"/>
      <stop offset="1" stop-color="#23b33a"/>
    </linearGradient>
    <filter id="a" width="1.115" height="1.114" x="-.057" y="-.057" color-interpolation-filters="sRGB">
      <feGaussianBlur stdDeviation="3.531"/>
    </filter>
  </defs>
  <path fill="#b3b3b3" d="m54.532 138.45 2.235 1.324c9.387 5.571 20.15 8.518 31.126 8.523h.023c33.707 0 61.139-27.426 61.153-61.135.006-16.335-6.349-31.696-17.895-43.251A60.75 60.75 0 0 0 87.94 25.983c-33.733 0-61.166 27.423-61.178 61.13a60.98 60.98 0 0 0 9.349 32.535l1.455 2.312-6.179 22.558zm-40.811 23.544L24.16 123.88c-6.438-11.154-9.825-23.808-9.821-36.772.013-40.556 33.021-73.55 73.578-73.55 19.681.01 38.154 7.669 52.047 21.572s21.537 32.383 21.53 52.037c-.013 40.557-33.02 73.551-73.578 73.551h-.032c-12.313-.005-24.412-3.094-35.159-8.954zm0 0" filter="url(#a)"/>
  <path fill="#fff" d="m12.966 161.238 10.439-38.114c-6.378-11.039-9.733-23.544-9.729-36.31.012-40.017 32.332-72.326 72.36-72.326 19.364.009 37.58 7.552 51.26 21.244 13.681 13.691 21.203 31.915 21.196 51.242-.012 40.018-32.33 72.325-72.36 72.325h-.031c-12.16-.004-24.1-3.057-34.693-8.85zm40.176-23.27 2.08 1.232c9.014 5.344 19.319 8.16 29.808 8.164h.022c32.296 0 58.572-26.271 58.584-58.57.005-15.663-6.081-30.387-17.112-41.426C115.524 36.365 100.802 30.279 85.15 30.274c-32.319 0-58.595 26.268-58.607 58.567a58.396 58.396 0 0 0 8.96 31.2l1.35 2.144-5.737 20.945z"/>
  <path fill="url(#b)" d="m87.177 25.016c-33.669 0-61.08 27.404-61.097 61.077a60.963 60.963 0 0 0 9.168 32.2l1.423 2.267-6.077 22.17 22.761-5.967 2.18 1.293c9.31 5.523 19.766 8.428 30.359 8.432h.026c33.65 0 61.069-27.404 61.084-61.077.01-16.318-6.286-31.674-17.757-43.17-11.47-11.496-26.8-17.839-43.07-17.85z"/>
  <path fill="#fff" fill-rule="evenodd" d="M68.772 55.603c-1.378-3.061-2.828-3.123-4.137-3.176l-3.524-.043c-1.226 0-3.218.46-4.902 2.3s-6.435 6.287-6.435 15.332 6.588 17.785 7.506 19.016 12.718 20.381 31.405 27.75c15.529 6.124 18.689 4.906 22.061 4.6s10.877-4.447 12.408-8.74 1.532-7.971 1.073-8.74-1.685-1.226-3.525-2.146-10.877-5.367-12.562-5.981-2.91-.919-4.137.921-4.746 5.979-5.819 7.206-2.144 1.381-3.984.462-7.76-2.861-14.784-9.124c-5.465-4.873-9.154-10.891-10.228-12.73s-.114-2.835.808-3.751c.825-.824 1.838-2.147 2.759-3.22s1.224-1.84 1.836-3.065.307-2.301-.153-3.22-4.032-10.011-5.666-13.647"/>
</svg>
